# File created by Blade
# Date/Time:  Wed Jan 21 15:15:22 2015
# Frame Rate: 120.000 fps
#------------------------------------------------------
:FULLY-SPECIFIED
:DEGREES
1248
root 17.772479 35.174891 -24.791472 61.436060 -86.529645 -53.580481
Spine -19.234698 0.272611 1.879369
Head 11.006528 -2.042992 4.967537
LeftShoulder -15.483115 -32.072231 21.672941
LeftArm -0.521534 5.394452 -9.479805
LeftForeArm 11.938220 -0.000000 -2.370134
LeftHand -7.325678 0.000000 -3.742965
LeftHandThumb1 -26.253704 0.000000 33.147579
RightShoulder -14.547851 -6.135860 -8.362640
RightArm 11.768480 35.898597 15.810412
RightForeArm -37.186902 -0.000000 5.797218
RightHand -9.231651 -0.000000 6.036468
RightHandThumb1 -24.326973 -0.000000 -32.862282
LeftUpLeg -1.066685 7.992540 9.155328
LeftLeg -2.906461 -0.000000 0.000000
LeftFoot -21.436357 23.912462 -13.917306
LeftToeBase 28.226537 -0.000000 -0.000000
RightUpLeg 0.273451 -2.018453 0.226785
RightLeg -0.949924 -0.000000 0.000000
RightFoot -24.371954 -26.167615 16.532848
RightToeBase 23.584635 -0.000000 -0.000000
1249
root 17.770371 35.177470 -24.739400 56.471490 -86.414997 -48.637386
Spine -19.259688 -0.072414 1.769806
Head 10.939744 -2.146786 4.963919
LeftShoulder -15.420097 -32.067150 21.756677
LeftArm -0.553391 5.124451 -9.488204
LeftForeArm 12.051344 -0.000000 -2.505031
LeftHand -7.325400 0.000000 -3.906222
LeftHandThumb1 -26.253704 0.000000 33.147579
RightShoulder -14.566427 -6.241077 -8.317452
RightArm 11.805784 35.675977 15.793579
RightForeArm -37.114890 -0.000000 5.609508
RightHand -9.026454 -0.000000 6.083703
RightHandThumb1 -24.326973 -0.000000 -32.862282
LeftUpLeg -0.728506 7.655055 9.002643
LeftLeg -3.663877 -0.000000 0.000000
LeftFoot -21.012490 23.972910 -13.945696
LeftToeBase 28.049066 -0.000000 -0.000000
RightUpLeg 0.359933 -2.282036 0.072949
RightLeg -0.977147 -0.000000 0.000000
RightFoot -24.366302 -26.172177 16.575504
RightToeBase 23.601320 -0.000000 -0.000000
1250
root 17.778756 35.179393 -24.689057 52.168927 -86.254178 -44.244446
Spine -19.403123 -0.412802 1.717027
Head 10.851020 -2.245573 4.881549
LeftShoulder -15.360515 -32.107998 21.828387
LeftArm -0.601341 5.017839 -9.497696
LeftForeArm 12.007531 -0.000000 -2.620063
LeftHand -7.289307 -0.000000 -4.053162
LeftHandThumb1 -26.253704 0.000000 33.147579
RightShoulder -14.621961 -6.370905 -8.369105
RightArm 11.926746 35.424279 15.880921
RightForeArm -37.043362 -0.000000 5.394129
RightHand -9.021123 -0.000000 6.153277
RightHandThumb1 -24.326973 -0.000000 -32.862282
LeftUpLeg -0.606028 7.283116 8.864474
LeftLeg -4.248432 -0.000000 0.000000
LeftFoot -20.724412 24.092334 -13.963994
LeftToeBase 27.996689 -0.000000 -0.000000
RightUpLeg 0.297941 -2.608672 -0.043345
RightLeg -0.962410 -0.000000 0.000000
RightFoot -24.360072 -26.122750 16.599384
RightToeBase 23.616146 -0.000000 -0.000000
1251
root 17.789855 35.180158 -24.640090 48.969607 -86.087132 -40.943979
Spine -19.539589 -0.686202 1.692566
Head 10.747969 -2.348173 4.720926
LeftShoulder -15.322647 -32.192121 21.886204
LeftArm -0.576221 4.914941 -9.511870
LeftForeArm 11.912482 -0.000000 -2.769831
LeftHand -7.371398 -0.000000 -4.067642
LeftHandThumb1 -26.253704 0.000000 33.147579
RightShoulder -14.608778 -6.436456 -8.438844
RightArm 11.875677 35.173047 15.838465
RightForeArm -37.019433 -0.000000 5.162117
RightHand -8.832966 -0.000000 6.173889
RightHandThumb1 -24.326973 -0.000000 -32.862282
LeftUpLeg -0.565970 7.061285 8.747608
LeftLeg -4.686076 -0.000000 0.000000
LeftFoot -20.499603 24.111583 -13.910118
LeftToeBase 28.042775 -0.000000 -0.000000
RightUpLeg 0.207890 -2.890308 -0.129884
RightLeg -0.935794 -0.000000 0.000000
RightFoot -24.344626 -26.111521 16.640532
RightToeBase 23.563137 -0.000000 -0.000000
1252
root 17.810394 35.181724 -24.590418 46.237219 -85.910759 -38.000769
Spine -19.785036 -0.934166 1.702814
Head 10.608021 -2.496210 4.456014
LeftShoulder -15.324014 -32.343921 21.948401
LeftArm -0.543964 4.888397 -9.532699
LeftForeArm 11.904904 -0.000000 -2.879806
LeftHand -7.388245 0.000000 -4.130540
LeftHandThumb1 -26.253704 0.000000 33.147579
RightShoulder -14.572060 -6.416344 -8.588358
RightArm 11.720802 34.795665 15.745797
RightForeArm -36.943404 -0.000000 4.995711
RightHand -8.943202 -0.000000 6.542222
RightHandThumb1 -24.326973 -0.000000 -32.862282
LeftUpLeg -0.730522 6.875656 8.609612
LeftLeg -4.976884 -0.000000 0.000000
LeftFoot -20.308222 24.134065 -13.806626
LeftToeBase 27.986937 -0.000000 -0.000000
RightUpLeg -0.011476 -3.185532 -0.201286
RightLeg -0.907847 -0.000000 0.000000
RightFoot -24.342045 -26.120754 16.689409
RightToeBase 23.510848 -0.000000 -0.000000
1253
root 17.827064 35.182180 -24.538977 43.685275 -85.711611 -35.333096
Spine -19.905127 -1.159043 1.722990
Head 10.422055 -2.591631 4.187547
LeftShoulder -15.335396 -32.406688 21.992600
LeftArm -0.500467 4.661533 -9.589891
LeftForeArm 11.956430 -0.000000 -2.834732
LeftHand -7.523300 0.000000 -4.310590
LeftHandThumb1 -26.253704 0.000000 33.147579
RightShoulder -14.569903 -6.366158 -8.714794
RightArm 11.567964 34.537636 15.642647
RightForeArm -36.960931 0.000000 4.865988
RightHand -8.864995 -0.000000 6.761808
RightHandThumb1 -24.326973 -0.000000 -32.862282
LeftUpLeg -0.855813 6.703139 8.493457
LeftLeg -5.147774 -0.000000 0.000000
LeftFoot -20.219351 24.106379 -13.695320
LeftToeBase 28.086573 -0.000000 -0.000000
RightUpLeg -0.108104 -3.498419 -0.267671
RightLeg -0.918797 -0.000000 0.000000
RightFoot -24.307848 -26.145653 16.721691
RightToeBase 23.531034 -0.000000 -0.000000
1254
root 17.848957 35.184135 -24.491826 42.369657 -85.597063 -33.854102
Spine -20.077489 -1.255942 1.727656
Head 10.271501 -2.729091 3.868600
LeftShoulder -15.287911 -32.517771 21.997311
LeftArm -0.465297 4.528919 -9.609601
LeftForeArm 11.933112 -0.000000 -2.852871
LeftHand -7.506584 -0.000000 -4.349524
LeftHandThumb1 -26.253704 0.000000 33.147579
RightShoulder -14.528991 -6.317876 -8.838983
RightArm 11.368230 34.520608 15.535670
RightForeArm -37.117463 -0.000000 4.728228
RightHand -8.742224 -0.000000 6.914747
RightHandThumb1 -24.326973 -0.000000 -32.862282
LeftUpLeg -1.048855 6.643968 8.377211
LeftLeg -5.237400 -0.000000 0.000000
LeftFoot -20.130210 24.092077 -13.513662
LeftToeBase 28.148621 -0.000000 -0.000000
RightUpLeg -0.314048 -3.664905 -0.324079
RightLeg -0.863525 -0.000000 0.000000
RightFoot -24.297603 -26.216445 16.758226
RightToeBase 23.470929 -0.000000 -0.000000
1255
root 17.866444 35.185337 -24.441951 40.519801 -85.441012 -31.970521
Spine -20.063914 -1.399485 1.752665
Head 10.046648 -2.867614 3.522541
LeftShoulder -15.272341 -32.685365 21.959889
LeftArm -0.409512 4.417171 -9.620143
LeftForeArm 11.882820 -0.000000 -2.803494
LeftHand -7.609231 -0.000000 -4.307119
LeftHandThumb1 -26.253704 0.000000 33.147579
RightShoulder -14.442363 -6.139787 -8.992271
RightArm 10.995915 34.441549 15.346702
RightForeArm -37.108239 -0.000000 4.776506
RightHand -8.841648 -0.000000 7.240461
RightHandThumb1 -24.326973 -0.000000 -32.862282
LeftUpLeg -1.153573 6.514771 8.266110
LeftLeg -5.255508 -0.000000 0.000000
LeftFoot -20.076254 24.073270 -13.335401
LeftToeBase 28.147925 -0.000000 -0.000000
RightUpLeg -0.359529 -3.964471 -0.397564
RightLeg -0.841752 -0.000000 0.000000
RightFoot -24.275991 -26.235205 16.763350
RightToeBase 23.584822 -0.000000 -0.000000
1256
root 17.884950 35.187310 -24.392575 39.280626 -85.371651 -30.664408
Spine -20.082976 -1.392219 1.705139
Head 9.799594 -3.010045 3.220186
LeftShoulder -15.263925 -32.742145 21.930804
LeftArm -0.206242 4.327083 -9.720113
LeftForeArm 11.658442 0.000000 -2.834366
LeftHand -7.645883 -0.000000 -4.139024
LeftHandThumb1 -26.253704 0.000000 33.147579
RightShoulder -14.460418 -6.081260 -9.103556
RightArm 10.705832 34.551573 15.243764
RightForeArm -37.225920 -0.000000 4.844420
RightHand -8.876971 -0.000000 7.371510
RightHandThumb1 -24.326973 -0.000000 -32.862282
LeftUpLeg -1.305325 6.465337 8.128405
LeftLeg -5.203414 -0.000000 0.000000
LeftFoot -20.100715 24.047359 -13.231438
LeftToeBase 28.248256 -0.000000 -0.000000
RightUpLeg -0.444943 -4.190409 -0.492957
RightLeg -0.833544 -0.000000 0.000000
RightFoot -24.230316 -26.240871 16.783585
RightToeBase 23.566390 -0.000000 -0.000000
1257
root 17.906694 35.190830 -24.345427 37.831713 -85.319922 -29.172081
Spine -20.052255 -1.473312 1.648386
Head 9.558241 -3.076032 2.906126
LeftShoulder -15.324031 -32.909779 21.982758
LeftArm -0.135603 4.295763 -9.782901
LeftForeArm 11.580197 -0.000000 -2.764978
LeftHand -7.635599 -0.000000 -4.022340
LeftHandThumb1 -26.253704 0.000000 33.147579
RightShoulder -14.368644 -5.914944 -9.226764
RightArm 10.415784 34.777276 15.157319
RightForeArm -37.329000 -0.000000 4.860979
RightHand -8.884666 0.000000 7.449432
RightHandThumb1 -24.326973 -0.000000 -32.862282
LeftUpLeg -1.445832 6.386166 7.970649
LeftLeg -5.130236 -0.000000 0.000000
LeftFoot -20.067972 24.018870 -13.137763
LeftToeBase 28.162176 -0.000000 -0.000000
RightUpLeg -0.524636 -4.441177 -0.608500
RightLeg -0.802323 -0.000000 0.000000
RightFoot -24.190947 -26.234101 16.757456
RightToeBase 23.603289 -0.000000 -0.000000
1258
root 17.925058 35.193818 -24.298295 36.617763 -85.289741 -27.952379
Spine -19.977142 -1.460783 1.583391
Head 9.287631 -3.199720 2.608075
LeftShoulder -15.340429 -32.991007 21.958147
LeftArm 0.013948 4.166315 -9.849328
LeftForeArm 11.537991 -0.000000 -2.702994
LeftHand -7.606241 -0.000000 -3.945883
LeftHandThumb1 -26.253704 0.000000 33.147579
RightShoulder -14.350628 -5.840459 -9.334268
RightArm 10.139053 35.021598 15.067863
RightForeArm -37.372808 -0.000000 4.919624
RightHand -8.878916 -0.000000 7.362689
RightHandThumb1 -24.326973 -0.000000 -32.862282
LeftUpLeg -1.538375 6.333582 7.823373
LeftLeg -5.050095 -0.000000 0.000000
LeftFoot -20.064571 23.994777 -13.058872
LeftToeBase 28.128938 -0.000000 -0.000000
RightUpLeg -0.571194 -4.713109 -0.727233
RightLeg -0.762025 -0.000000 0.000000
RightFoot -24.158032 -26.166004 16.721177
RightToeBase 23.699275 -0.000000 -0.000000
1259
root 17.944569 35.196841 -24.250123 35.081274 -85.258436 -26.417462
Spine -19.900230 -1.489960 1.500559
Head 9.073587 -3.280487 2.264500
LeftShoulder -15.337187 -33.003356 21.919432
LeftArm 0.131639 4.066967 -9.910404
LeftForeArm 11.476775 -0.000000 -2.583056
LeftHand -7.631927 0.000000 -3.928474
LeftHandThumb1 -26.253704 0.000000 33.147579
RightShoulder -14.302122 -5.811601 -9.424066
RightArm 9.911186 35.297841 14.987116
RightForeArm -37.390437 -0.000000 4.936176
RightHand -8.888108 -0.000000 7.285628
RightHandThumb1 -24.326973 -0.000000 -32.862282
LeftUpLeg -1.638651 6.238732 7.653746
LeftLeg -4.942431 -0.000000 0.000000
LeftFoot -20.091138 23.972397 -13.011334
LeftToeBase 28.164794 -0.000000 -0.000000
RightUpLeg -0.603447 -5.035507 -0.872448
RightLeg -0.733955 -0.000000 0.000000
RightFoot -24.095775 -26.069180 16.640129
RightToeBase 23.604777 -0.000000 -0.000000
1260
root 17.962475 35.200025 -24.208083 34.011626 -85.276009 -25.369476
Spine -19.785277 -1.437681 1.392288
Head 8.826868 -3.334950 2.015699
LeftShoulder -15.301885 -33.057043 21.873010
LeftArm 0.246463 4.077390 -9.941990
LeftForeArm 11.486506 -0.000000 -2.472000
LeftHand -7.598950 -0.000000 -3.938003
LeftHandThumb1 -26.253704 0.000000 33.147579
RightShoulder -14.244518 -5.712697 -9.520388
RightArm 9.567379 35.395312 14.842035
RightForeArm -37.291981 0.000000 5.005651
RightHand -9.029760 0.000000 7.235106
RightHandThumb1 -24.326973 -0.000000 -32.862282
LeftUpLeg -1.683965 6.207876 7.502973
LeftLeg -4.864759 -0.000000 0.000000
LeftFoot -20.096556 23.930800 -13.002436
LeftToeBase 28.106676 -0.000000 -0.000000
RightUpLeg -0.631492 -5.314396 -1.004082
RightLeg -0.689863 -0.000000 0.000000
RightFoot -24.044376 -25.959409 16.575142
RightToeBase 23.751682 -0.000000 -0.000000
